<?xml version="1.0" encoding="UTF-8"?>
<svg id="Layer_1" xmlns="http://www.w3.org/2000/svg" version="1.1" viewBox="0 0 384.1 73.1">
  <!-- Generator: Adobe Illustrator 29.4.0, SVG Export Plug-In . SVG Version: 2.1.0 Build 152)  -->
  <defs>
    <style>
      .st0 {
        fill: #73a9c4;
      }

      .st1 {
        fill: #fff;
      }
    </style>
  </defs>
  <g>
    <path class="st1" d="M283.2,56.9V12.2h25.4c12.4,0,21.3,8.9,21.3,21.9s-9,22.8-21.3,22.8h-25.4ZM308.6,51c8.9,0,15.4-7.1,15.4-16.5s-6.5-16.2-15.4-16.2h-19.5v32.8h19.5Z"/>
    <path class="st1" d="M336.9,12.2h32.5c8.4,0,13.9,3.9,13.9,11.4s-3.1,8.9-7.3,9.8c4.7,1.2,8,4.8,8,10.6s-5.3,12.8-14,12.8h-33.2V12.2ZM342.9,18.2v32.8h24.5c6.1,0,10.8-2.3,10.8-7.1s-3.1-6.9-8.4-6.9h-21.1v-5.5h20.7c5.4,0,8-1.7,8-6.6s-3.8-6.6-10.3-6.6h-24.2Z"/>
  </g>
  <g>
    <path class="st0" d="M92.8,56.9V12.2h26.8c13,0,22.5,8.9,22.5,21.9s-9.5,22.8-22.5,22.8h-26.8ZM119.6,45.6c6.4,0,11.1-4.5,11.1-10.9s-4.7-11.1-11.1-11.1h-15.5v22h15.5Z"/>
    <path class="st0" d="M147.7,56.9V12.2h11.4v44.7h-11.4Z"/>
    <path class="st0" d="M163,12.2h13.9l17.1,29.3,17-29.3h13l-25.1,41.7c-1.4,2.2-3,3.6-5.4,3.6s-4.1-1.4-5.5-3.6l-25.1-41.7Z"/>
    <path class="st0" d="M227.6,56.9V12.2h41.2v11.3h-29.9v22h30.1v11.4h-41.4ZM244.4,38.5v-8.5h22.7v8.5h-22.7Z"/>
  </g>
  <g id="Layer_2">
    <path class="st1" d="M34.7,73.1c-14.9,0-28.1-9.8-32.8-24.5-1.2-3.9-1.8-8.3-1.8-12.1,0-9.9,3.6-19,10.2-25.6C16.6,3.9,25.3,0,34.7,0h3.8c10.2,0,20.1,4.9,27,13.5v.9l.4.4v.9c-.2.3-.4.6-.4,1.2h0c0,0-.2.1-.3.2h-.2c0,.1-.2.3-.2.3-.3.3-.8.7-1.2,1-.5.4-1,.8-1.5,1.3-.7.7-1.3,1.2-1.8,1.6-.4.3-.7.5-.8.7-5.9,5.9-9.2,13.9-9.2,22.4v1.5h9.1c5.2,0,9.5,3.2,11.5,8.5,2.2,5.1,1.2,10.8-2.3,14.4s-4.5,3.5-7.3,4.2h-.1c-.9.3-1.9.3-3,.3h-23.6ZM34.7,4.6c-8.2,0-15.7,3.3-21.3,9.2-5.6,6-8.8,14.3-8.8,22.7s.5,7.5,1.6,10.8c4.4,12.9,15.6,21.2,28.4,21.2h23.6c.4,0,1.4,0,2.4-.5,2-.5,3.6-1.6,4.8-3.1,2.8-2.9,2.7-7,1.7-8.9-1.8-3.6-4.4-5.4-7.8-5.4h-20.2c-7.8,0-14.1-6.7-14.1-14.9v-.8c.4-9.6,5.7-17.9,13.9-21.5,3.6-1.4,6.9-2.1,9.9-2.1s2.2,0,3.3.3l1.1-2.7c-4.5-2.9-9.8-4.4-14.9-4.4h-3.8ZM48.7,16c-2.8,0-5.4.6-7.9,1.7-6.6,2.9-10.7,9.3-11.2,17.3v.5c0,5.8,4.1,10.3,9.5,10.3h6.4v-1.5c0-8.8,3.4-17.6,9.5-24.9l1.5-1.7-2.2-.7c-1.9-.6-3.8-.8-5.8-.8Z"/>
  </g>
</svg>