<?xml version="1.0" encoding="UTF-8"?>
<svg id="Layer_1" xmlns="http://www.w3.org/2000/svg" version="1.1" viewBox="0 0 800 800">
  <!-- Generator: Adobe Illustrator 29.4.0, SVG Export Plug-In . SVG Version: 2.1.0 Build 152)  -->
  <defs>
    <style>
      .st0 {
        fill: #060404;
      }

      .st1 {
        fill: #fff;
      }
    </style>
  </defs>
  <g id="Generative_Object">
    <path class="st0" d="M277,307.7l43.5,25c-4.3,19.4-14.6,37.3-17.6,57.1s-.9,35.4.4,53.2c-46.2-31.8-48.4-87.8-26.4-135.3Z"/>
    <g>
      <path class="st0" d="M281.4,137.2c55.2-2.3,109.3,15.7,157.3,41.3,22.1,11.8,53.1,37.9,75.6,43.1,34.4,7.9,83.2,9.2,107.6,40.9,24.8,32.2-16.9,8.8-29.4,12.7-27,8.4,6,61.6,11.9,76,24.8,60.8,49.5,128.6,32.5,195.1-3.5,13.6-16.7,31.8-7,44.8,5.4,7.3,23.5,10.6,32.1,15.4,15.2,8.4,27.4,25,33.8,40.9s9.7,25.4,4.8,28.6c-8,5.2-15.8-8.6-21.1-12.3-24.9-17.3-88.9-7.5-73.8-55.4-17.9,51-64.9,12.7-99.3,16.7s-19,7.7-20.6,3.1,29-26.9,34.7-29.4c19.8-8.6,31-3.8,49.2-7,44.4-7.8,9.9-70.9-4.8-91.8-33.8-48.1-89.5-87.5-139.7-116.9,1.7-32.6-11.5-61.7-35.6-83-2.1-.4.3,2.8.4,3.1,4.2,6.4,12.1,12,16.7,20.2,14.3,25.6,7.8,40.7,11.4,66.8,3.6,25.6,20.1,50.5,37.8,68.5-41.5,1-81-28.2-96.7-65.9-17.1-41.2-.5-89.9-37.3-122.6l15.4,30.3c2.5,11.1,4.8,22.3,3.1,33.8-45.7-26.6-100.1-60-152.9-69.4-19.9-3.5-61.7-.8-76.4-10.5s-9.7-9.5-7.5-13.6,53.3,1,61.9.4c18.9-1.2,37.7-6.1,56.2-9.7-27.4,2.1-55,5.1-82.6,3.5-6.7-.4-39.4-2.9-40.9-9.2-3.1-13.3,16.7-31.6,28.6-34.7,10.3-2.7,40.3,1,42.2,0s6.5-9.8,8.3-11.9c28.2-30.4,63.1-40,104.1-41.7Z"/>
      <path class="st1" d="M263.8,204c15-.5,13.3,17,0,18.5-17.9,2-14.6-18,0-18.5Z"/>
    </g>
  </g>
</svg>