<?xml version="1.0" encoding="UTF-8"?>
<svg id="Layer_1" xmlns="http://www.w3.org/2000/svg" version="1.1" viewBox="0 0 736.7 603.2">
  <!-- Generator: Adobe Illustrator 29.4.0, SVG Export Plug-In . SVG Version: 2.1.0 Build 152)  -->
  <defs>
    <style>
      .st0 {
        fill: #fff;
      }
    </style>
  </defs>
  <path class="st0" d="M58.6,592.8c13.1,6.9,27.1,10.4,41.5,10.4s36-5.7,51.5-16.4l.4-.3,148.7-108.8c4,35.3,23.4,65.8,52.7,81.6,12.8,6.9,27,10.5,41.2,10.5s33.6-5.1,48.3-14.7l247.2-162.6c29.1-19.1,46.5-53.2,46.5-91,0-37.9-17.4-71.9-46.5-91L442.9,48c-14.6-9.6-31.3-14.7-48.3-14.7-14.2,0-28.5,3.6-41.2,10.5-29.3,15.8-48.7,46.3-52.7,81.6L152.4,17l-.8-.6C136.1,5.7,118.3,0,100.1,0h0c-14.5,0-28.4,3.5-41.5,10.4C22.4,29.4,0,69.8,0,115.8v371.6c0,46,22.4,86.4,58.6,105.4ZM91.1,72.3c3-1.6,6.1-2.4,9.1-2.4s7.5,1.3,11.4,3.9l188.4,137.8v179.9l-188.4,137.8c-3.9,2.6-7.6,3.9-11.4,3.9s-6-.8-9.1-2.4c-12.6-6.6-21.1-24.1-21.1-43.5V115.8c0-19.4,8.5-36.8,21.1-43.5ZM666.7,301.6c0,14.2-5.6,26.4-14.9,32.5l-247.2,162.6c-3.3,2.2-6.5,3.2-9.7,3.2s-5.4-.7-8.1-2.2c-10-5.4-16.7-18.9-16.7-33.6V139c0-14.7,6.7-28.2,16.7-33.6,2.7-1.5,5.4-2.2,8.1-2.2s6.4,1.1,9.7,3.2l247.2,162.6c9.4,6.2,14.9,18.3,14.9,32.5Z"/>
</svg>