<?xml version="1.0" encoding="UTF-8"?>
<svg id="Layer_1" xmlns="http://www.w3.org/2000/svg" version="1.1" viewBox="0 0 800 800">
  <!-- Generator: Adobe Illustrator 29.4.0, SVG Export Plug-In . SVG Version: 2.1.0 Build 152)  -->
  <defs>
    <style>
      .st0 {
        fill: #111;
      }

      .st1 {
        fill: #fff;
      }
    </style>
  </defs>
  <g id="Generative_Object">
    <path class="st0" d="M509.5,671.4c20.8-4.2,76.1,20.8,70.7,49.1l-138.3.5c-4.1-1.8,2.3-18.6,4.1-21.2,5.5-8.4,22.8-9.1,32.9-13.1,6.8-2.7,26.8-14.5,30.6-15.3Z"/>
    <path class="st0" d="M289.7,672.3c3.6,0,23.9,11.4,29.7,13.5,21.2,7.8,53.4,5.9,57.2,33.8l-151.8,1.4c3.2-18.4,48.4-48.3,64.9-48.7Z"/>
    <g>
      <path class="st0" d="M370.8,94.7c39-4.3,86.7-2.9,111.3,32,33.5,47.6-4.1,97.4,12.6,146,11.5,33.3,60.3,63.2,83.8,90.1,65.5,75,70.4,168.9,23.9,255.5-8-24.4-5.9-52.9-14-77-10.3-31-39.7-56.1-52.3-86.5s-11.8-43.7-12.2-66.2c-9.5,30.3-2.5,61.5,12.2,88.8,6.5,12.2,33.6,45,35.1,55s-5.1,40.4-8.1,50.5c-45.9,152.5-317.5,140.8-333.4-33.3-2.9-31.5,17.3-42.7,31.5-67.6,16-27.9,24.8-60.8,14.9-92.4-1.3,22.8-4,45.9-13.1,67.1s-39.9,52.5-50.5,82-6.9,53.7-15.3,79.3c-46.1-86.4-41.2-180.2,24.3-255,23.1-26.3,70.9-56.3,82.9-88.3,18.9-50.4-22.5-103.1,16.2-151.4,11.3-14.1,31.9-26.4,50-28.4Z"/>
      <path class="st1" d="M396,207.4c16.6-.9,37.7,6.2,46.4,21.2-7.7,4.1-14.2,8.6-19.8,15.3s-15.7,28.8-22.1,29.3c-10.8.8-25.7-45.4-42.8-44.6,6.1-12.7,25.2-20.5,38.3-21.2Z"/>
      <path class="st1" d="M451,162.3c23.1-3.6,26.6,29.7,8.1,33.3-25.2,4.9-28-30.3-8.1-33.3Z"/>
      <path class="st1" d="M342.8,162.3c23.8-4.3,27.3,29.9,8.1,33.3-23.7,4.3-28.1-29.8-8.1-33.3Z"/>
    </g>
  </g>
</svg>