<?xml version="1.0" encoding="UTF-8"?>
<svg id="Layer_1" xmlns="http://www.w3.org/2000/svg" version="1.1" viewBox="0 0 736.7 603.2">
  <!-- Generator: Adobe Illustrator 29.4.0, SVG Export Plug-In . SVG Version: 2.1.0 Build 152)  -->
  <defs>
    <style>
      .st0 {
        fill: #fff;
      }
    </style>
  </defs>
  <path class="st0" d="M678.1,10.4c-13.1-6.9-27.1-10.4-41.5-10.4s-36,5.7-51.5,16.4l-.4.3-148.7,108.8c-4-35.3-23.4-65.8-52.7-81.6-12.8-6.9-27-10.5-41.2-10.5s-33.6,5.1-48.3,14.7L46.5,210.6C17.4,229.7,0,263.7,0,301.6c0,37.9,17.4,71.9,46.5,91l247.2,162.6c14.6,9.6,31.3,14.7,48.3,14.7,14.2,0,28.5-3.6,41.2-10.5,29.3-15.8,48.7-46.3,52.7-81.6l148.3,108.5.8.6c15.6,10.7,33.4,16.4,51.5,16.4h0c14.5,0,28.4-3.5,41.5-10.4,36.1-19,58.6-59.4,58.6-105.4V115.8c0-46-22.4-86.4-58.6-105.4ZM645.5,530.8c-3,1.6-6.1,2.4-9.1,2.4s-7.5-1.3-11.4-3.9l-188.4-137.8v-179.9l188.4-137.8c3.9-2.6,7.6-3.9,11.4-3.9s6,.8,9.1,2.4c12.6,6.6,21.1,24.1,21.1,43.5v371.6c0,19.4-8.5,36.8-21.1,43.5ZM70,301.6c0-14.2,5.6-26.4,14.9-32.5l247.2-162.6c3.3-2.2,6.5-3.2,9.7-3.2s5.4.7,8.1,2.2c10,5.4,16.7,18.9,16.7,33.6v325.1c0,14.7-6.7,28.2-16.7,33.6-2.7,1.5-5.4,2.2-8.1,2.2s-6.4-1.1-9.7-3.2l-247.2-162.6c-9.4-6.2-14.9-18.3-14.9-32.5Z"/>
</svg>