<?xml version="1.0" encoding="UTF-8"?>
<svg id="Layer_1" xmlns="http://www.w3.org/2000/svg" version="1.1" viewBox="0 0 533.3 518.4">
  <!-- Generator: Adobe Illustrator 29.4.0, SVG Export Plug-In . SVG Version: 2.1.0 Build 152)  -->
  <defs>
    <style>
      .st0 {
        fill: #fff;
      }
    </style>
  </defs>
  <path class="st0" d="M448.2,518.4c-5.3,0-10.6-1.6-15.1-4.8l-166.4-118.8-166.4,118.8c-7.9,5.7-18.3,6.4-26.9,1.9-8.6-4.4-14.1-13.4-14.1-23V108.9c0-32.1,0-49.8,8.5-66.4,7.5-14.7,19.3-26.5,34-34C118.4,0,136.1,0,168.2,0h197c32.1,0,49.8,0,66.4,8.5,14.7,7.5,26.5,19.3,34,34,8.5,16.6,8.5,34.3,8.5,66.4v383.6c0,9.7-5.4,18.6-14.1,23-3.7,1.9-7.8,2.9-11.8,2.9h0ZM266.8,336.9c5.3,0,10.6,1.6,15.1,4.8l140.4,100.3V108.9c0-22.5,0-37.3-2.8-42.8-2.5-4.9-6.5-8.9-11.4-11.4-5.5-2.8-20.4-2.8-42.8-2.8h-197c-22.5,0-37.3,0-42.8,2.8-4.9,2.5-8.8,6.5-11.4,11.4-2.8,5.5-2.8,20.4-2.8,42.8v333.3l140.4-100.3c4.5-3.2,9.8-4.8,15.1-4.8h0,0Z"/>
  <polygon class="st0" points="224.3 290.2 156.4 219.5 188.2 189.1 225.7 228.2 345.9 114.2 376.1 146.1 224.3 290.2"/>
</svg>