<?xml version="1.0" encoding="UTF-8"?>
<svg id="Layer_1" xmlns="http://www.w3.org/2000/svg" version="1.1" viewBox="0 0 533.3 666.6">
  <!-- Generator: Adobe Illustrator 29.4.0, SVG Export Plug-In . SVG Version: 2.1.0 Build 152)  -->
  <defs>
    <style>
      .st0 {
        fill: #fff;
      }
    </style>
  </defs>
  <path class="st0" d="M500.1,666.6c-6.8,0-13.6-2.1-19.4-6.2l-214-152.8-214,152.8c-10.2,7.3-23.5,8.2-34.6,2.5s-18.1-17.2-18.1-29.6V140c0-41.3,0-64,10.9-85.4,9.6-18.9,24.8-34.1,43.7-43.7C76,0,98.7,0,140,0h253.3c41.3,0,64,0,85.4,10.9,18.9,9.7,34.1,24.8,43.7,43.7,10.9,21.4,10.9,44.1,10.9,85.4v493.3c0,12.5-7,23.9-18.1,29.6-4.8,2.5-10,3.7-15.2,3.7h0ZM266.8,433.3c6.8,0,13.6,2.1,19.4,6.2l180.6,129V140c0-28.9,0-48-3.6-55.1-3.2-6.3-8.3-11.4-14.6-14.6-7.1-3.6-26.2-3.6-55.1-3.6h-253.3c-28.9,0-48,0-55.1,3.6-6.3,3.2-11.3,8.3-14.6,14.6-3.6,7.1-3.6,26.2-3.6,55.1v428.6l180.6-129c5.8-4.1,12.6-6.2,19.4-6.2h-.1Z"/>
</svg>