<?xml version="1.0" encoding="UTF-8"?>
<svg id="Layer_1" xmlns="http://www.w3.org/2000/svg" version="1.1" viewBox="0 0 666.7 666.7">
  <!-- Generator: Adobe Illustrator 29.4.0, SVG Export Plug-In . SVG Version: 2.1.0 Build 152)  -->
  <defs>
    <style>
      .st0 {
        fill: #fff;
      }
    </style>
  </defs>
  <path class="st0" d="M333.3,666.7c-45,0-88.6-8.8-129.8-26.2-39.7-16.8-75.3-40.8-105.9-71.4-30.6-30.6-54.6-66.2-71.4-105.9C8.8,422,0,378.3,0,333.3s8.8-88.6,26.2-129.8c16.8-39.7,40.8-75.3,71.4-105.9,30.6-30.6,66.2-54.6,105.9-71.4C244.7,8.8,288.3,0,333.3,0s88.6,8.8,129.8,26.2c39.7,16.8,75.3,40.8,105.9,71.4,30.6,30.6,54.6,66.2,71.4,105.9,17.4,41.1,26.2,84.8,26.2,129.8s-8.8,88.6-26.2,129.8c-16.8,39.7-40.8,75.3-71.4,105.9-30.6,30.6-66.2,54.6-105.9,71.4-41.1,17.4-84.8,26.2-129.8,26.2ZM333.3,66.7c-71.2,0-138.2,27.7-188.6,78.1-50.4,50.4-78.1,117.3-78.1,188.6s27.7,138.2,78.1,188.6c50.4,50.4,117.3,78.1,188.6,78.1s138.2-27.7,188.6-78.1c50.4-50.4,78.1-117.3,78.1-188.6s-27.7-138.2-78.1-188.6c-50.4-50.4-117.3-78.1-188.6-78.1Z"/>
  <path class="st0" d="M333.3,466.7c-73.5,0-133.3-59.8-133.3-133.3s59.8-133.3,133.3-133.3,133.3,59.8,133.3,133.3-59.8,133.3-133.3,133.3ZM333.3,266.7c-36.8,0-66.7,29.9-66.7,66.7s29.9,66.7,66.7,66.7,66.7-29.9,66.7-66.7-29.9-66.7-66.7-66.7Z"/>
</svg>