<?xml version="1.0" encoding="UTF-8"?>
<svg id="Layer_1" xmlns="http://www.w3.org/2000/svg" version="1.1" viewBox="0 0 800 800">
  <!-- Generator: Adobe Illustrator 29.4.0, SVG Export Plug-In . SVG Version: 2.1.0 Build 152)  -->
  <defs>
    <style>
      .st0 {
        fill: #111;
      }
    </style>
  </defs>
  <path class="st0" d="M678.8,532.9c0-124.6-152.6-154.3-248.6-174.6-43.4-9.2-94.4-.7-114.4-45.9-30.3-68.6-40.2-118.8-136.3-110.3-23,2-38.4,13.9-58.9,21.9-20.9,8.2-47.6,1.3-39,36.3,6.1,25.1,33.7,26.8,50,40.4,26.7,22.3,28.6,104.5,39,140.4,6.6,22.7,20.4,53.5,39.7,67.1l35.6-89c.9,69.5-21.1,122-84.2,154.1-8,4.1-40.1,14.2-43.8,17.8-2.3,2.2-3.2,3.5,0,5.5,1.8,1.1,37.8,6.5,42.5,6.8,30.3,2.2,94.1-.6,117.8-21.9,28.6-25.7,16-89.1,21.9-123.3,16,31.8,15.8,67.1,8.2,101.4,55.1,14,110.8-3.2,163-20.5,52.9-17.6,121.9-63.1,167.8-6.2-42.7-8-96.8,20.1-93.8,67.8,34.4-11.3,76.2,8.3,101.4-26,24.2,33,71.4,15.1,103.4,32.2-.4-46.8-23.2-73.7-71.2-74ZM171.3,258.3c-12-4.9-10.3-25.4,2.7-27.4,26.2-4,19.8,36.6-2.7,27.4Z"/>
</svg>