<?xml version="1.0" encoding="UTF-8"?>
<svg id="Layer_1" xmlns="http://www.w3.org/2000/svg" version="1.1" viewBox="0 0 533.7 539.1">
  <!-- Generator: Adobe Illustrator 29.4.0, SVG Export Plug-In . SVG Version: 2.1.0 Build 152)  -->
  <defs>
    <style>
      .st0 {
        fill: #fff;
      }
    </style>
  </defs>
  <path class="st0" d="M53.4,527.3c12.8,6.9,27,10.5,41.2,10.5,16.9,0,33.6-5.1,48.2-14.7l247.2-162.6c29.1-19.1,46.5-53.2,46.5-91s-17.4-71.9-46.5-91L142.9,16c-14.6-9.6-31.3-14.7-48.3-14.7s-28.5,3.6-41.2,10.5C20.5,29.6,0,66.1,0,107v325.1c0,40.9,20.5,77.4,53.4,95.2ZM366.7,269.6c0,14.2-5.6,26.4-14.9,32.5l-247.2,162.6c-3.3,2.2-6.5,3.2-9.7,3.2s-5.4-.7-8.1-2.2c-10-5.4-16.7-18.9-16.7-33.6V107c0-14.7,6.7-28.2,16.7-33.6,2.7-1.5,5.4-2.2,8.1-2.2s6.4,1.1,9.7,3.2l247.2,162.6c9.4,6.1,14.9,18.3,14.9,32.5Z"/>
  <path class="st0" d="M498.7,539.1c19.3,0,35-15.7,35-35V35c0-19.3-15.7-35-35-35s-35,15.7-35,35v469.1c0,19.3,15.7,35,35,35Z"/>
</svg>