<?xml version="1.0" encoding="UTF-8"?>
<svg id="Layer_1" xmlns="http://www.w3.org/2000/svg" version="1.1" viewBox="0 0 600.1 521.9">
  <!-- Generator: Adobe Illustrator 29.4.0, SVG Export Plug-In . SVG Version: 2.1.0 Build 152)  -->
  <defs>
    <style>
      .st0 {
        fill: #fff;
      }
    </style>
  </defs>
  <path class="st0" d="M488.6,521.9c-8.5,0-17.1-3.3-23.6-9.8-13-13-13-34.1,0-47.1,32.7-32.7,54.8-74.1,63.9-119.5,9-45.4,4.4-92-13.3-134.8-17.7-42.8-47.4-79-85.9-104.7-38.5-25.7-83.3-39.3-129.6-39.3s-91.1,13.6-129.6,39.3c-38.5,25.7-68.2,61.9-85.9,104.7-17.7,42.8-22.3,89.4-13.3,134.8,9,45.4,31.1,86.7,63.9,119.5,13,13,13,34.1,0,47.1-13,13-34.1,13-47.1,0-42.1-42.1-70.5-95.2-82.1-153.6C-5.8,300.1,0,240.2,22.9,185.2c22.8-55,61-101.6,110.5-134.6C182.9,17.5,240.5,0,300,0s117.2,17.5,166.7,50.6c49.5,33.1,87.7,79.6,110.5,134.6,22.8,55,28.7,114.9,17.1,173.3-11.6,58.4-40,111.5-82.1,153.6-6.5,6.5-15,9.8-23.6,9.8Z"/>
  <path class="st0" d="M300.1,333.3c-12.2,0-24-6.8-29.8-18.4-8.2-16.5-1.6-36.5,14.9-44.7l133.3-66.7c16.5-8.2,36.5-1.6,44.7,14.9s1.6,36.5-14.9,44.7l-133.3,66.7c-4.8,2.4-9.9,3.5-14.9,3.5Z"/>
</svg>