<?xml version="1.0" encoding="UTF-8"?>
<svg id="Layer_1" xmlns="http://www.w3.org/2000/svg" version="1.1" viewBox="0 0 800 800">
  <!-- Generator: Adobe Illustrator 29.4.0, SVG Export Plug-In . SVG Version: 2.1.0 Build 152)  -->
  <defs>
    <style>
      .st0 {
        fill: #111;
      }
    </style>
  </defs>
  <g id="Generative_Object">
    <path class="st0" d="M428.4,170.8c8.3,6.9,14.3,18,16.6,28.4-23.2,3.5-45.4,12-66.2,22.7s-21.4,14.5-25.1,15.6-8.6-2.6-10.9-2.8c-7.4-.6-15.5-.4-22.7,1.4-2.7.7-15.2,6.3-16.1,6.2s-6.9-4.3-9.9-5.2c-9.9-2.8-25.7.3-35,4.3-3.2,1.4-16.5,10-17.5,9.9s-6.5-4.7-9.9-5.7c-20.3-6-54.9,20.2-73.8,27-6.8,2.4-14.7,4.3-21.8,1.4-1.8-3.1,13.1-24.4,15.6-27.4,30.5-36.7,78.4-61.5,123.5-74.3s126.3-23.8,153.3-1.4Z"/>
    <path class="st0" d="M622.8,365.3c16.5,13.7,17.7,33.7,18.5,53.5,2.4,65.5-17.6,147.9-59.1,199.6s-34.3,37.9-56.3,45.4c-9.7-5.7,19.8-54.3,23.2-62.4,3.4-8.2,8.2-24,5.7-32.6-.8-2.7-5.3-9.5-5.2-10.4s6.9-11,8-13.7c4.3-9.8,8.6-25.3,6.2-36s-5.2-10.3-5.7-12.3,6.9-18.8,7.6-24.1c1-7.6-3.1-24-2.8-25.5.6-2.8,12.7-19.9,15.1-24.6,10.8-20.7,19.5-43,22.7-66.2,2.2-2.2,19.8,7.5,22.2,9.5Z"/>
    <path class="st0" d="M653.1,141c13,9.7,13.2,21.5,7.6,35.5-1.5,3.8-7.2,11.1-8,13.7s1.8,16.8,1.4,21.3c-3.3,38.4-34.8,28.2-54.4,52.5-4.3,5.3-6,12.5-9.9,18-14.4-31-41.2-56.4-71.4-71.9,10.6-4.2,20.6-10.3,27.9-19.4,14.4-18,6.4-40,40.2-44,5.2-.6,20.2,1.8,22.7.9,13.3-4.3,27.4-19,44-6.6Z"/>
    <path class="st0" d="M242.9,435.8l3.8,65.8c-1.6,4.5-16.1,19.2-20.8,19.4-3.6.2-32.5-8.7-40.2-9.9-15-2.4-30.3-2.4-45.4-3.8,23.7-35.6,63.5-57,102.7-71.4Z"/>
    <path class="st0" d="M364,556.9c-14.9,38.8-35.6,79.4-71.9,102.2-.9-15.7-1.2-31.7-3.8-47.3-1.2-7.4-9.6-34-9.5-37.8.3-6.2,13.5-16.1,18-20.3l67.2,3.3Z"/>
    <path class="st0" d="M546.2,237.5c72.1,63.4,55.3,141.1,6.2,211.9-48.5,70-93.9,103.3-179.8,101.7-28.6-.5-70.7-1.4-98.4-4.7s-19.7-26.7-20.8-48.3c-5.2-102.4-17-157.7,71.9-231.3,63.2-52.4,149.9-91.8,220.9-29.3Z"/>
  </g>
</svg>