<?xml version="1.0" encoding="UTF-8"?>
<svg id="Layer_1" xmlns="http://www.w3.org/2000/svg" version="1.1" viewBox="0 0 666.7 466.7">
  <!-- Generator: Adobe Illustrator 29.4.0, SVG Export Plug-In . SVG Version: 2.1.0 Build 152)  -->
  <defs>
    <style>
      .st0 {
        fill: #fff;
      }
    </style>
  </defs>
  <path class="st0" d="M360,466.7h-220c-41.3,0-64,0-85.4-10.9-18.9-9.6-34-24.8-43.7-43.7C0,390.7,0,367.9,0,326.7v-186.7c0-41.3,0-64,10.9-85.4,9.7-18.9,24.8-34.1,43.7-43.7C76,0,98.7,0,140,0h220c41.3,0,64,0,85.4,10.9,18.9,9.7,34.1,24.8,43.7,43.7,7.7,15.1,10,30.9,10.6,53.4l35.7-21.4c31.6-19,49-29.4,70.8-27.4,19,1.8,36.3,11.6,47.5,26.9,12.9,17.6,12.9,37.9,12.9,74.8v144.9c0,36.9,0,57.2-12.9,74.8-11.3,15.3-28.6,25.2-47.5,26.9-21.8,2-39.2-8.4-70.8-27.4l-35.7-21.4c-.7,22.5-2.9,38.3-10.6,53.4-9.6,18.9-24.8,34.1-43.7,43.7-21.4,10.9-44.1,10.9-85.4,10.9ZM140,66.7c-28.9,0-48,0-55.1,3.6-6.3,3.2-11.4,8.3-14.6,14.6-3.6,7.1-3.6,26.2-3.6,55.1v186.7c0,28.9,0,48,3.6,55.1,3.2,6.3,8.3,11.4,14.6,14.6,7.1,3.6,26.2,3.6,55.1,3.6h220c28.9,0,48,0,55.1-3.6,6.3-3.2,11.3-8.3,14.6-14.6,3.6-7.1,3.6-26.2,3.6-55.1v-26.1c0-.4,0-.8,0-1.2v-132.1c0-.4,0-.8,0-1.2v-26.1c0-28.9,0-48-3.6-55.1-3.2-6.3-8.3-11.4-14.6-14.6-7.1-3.6-26.2-3.6-55.1-3.6h-220ZM598.6,343.7h0,0ZM500,281.1l69.7,41.8c11.4,6.8,23,13.8,29.5,16.8.8-7.1.8-20.7.8-34v-144.9c0-13.2,0-26.8-.8-34-6.5,3-18.2,10-29.5,16.8l-69.7,41.8v95.6ZM603,125.4s0,0,0,0c0,0,0,0,0,0ZM598.6,123s0,0,0,0c0,0,0,0,0,0Z"/>
</svg>